<svg xmlns="http://www.w3.org/2000/svg" viewBox="0 0 801.75 436.13">
  <title>fkm-de</title>
  <g id="Ebene_2" data-name="Ebene 2">
    <g id="Ebene_1-2" data-name="Ebene 1">
      <g id="Ebene_2-2" data-name="Ebene 2">
        <g id="Ebene_1-2-2" data-name="Ebene 1-2">
          <path d="M799.75,371.46c0,39.79-22.85,62.67-62.64,62.67H64.67C24.88,434.13,2,411.25,2,371.46V64.8C2,25,24.88,2.13,64.67,2.13L737.11,2c39.79,0,62.64,23,62.64,62.8Z" fill="#fff" stroke="#004388" stroke-width="4"/>
          <rect x="24.88" y="25.02" width="752.02" height="329.59" rx="39.79" ry="39.79" fill="#004388"/>
          <rect x="45.72" y="45.94" width="484.9" height="287.72" rx="17.01" ry="17.01" fill="#fff"/>
          <g>
            <path d="M88.81,236.2a4.26,4.26,0,0,0,4.25,4.25h22.58a4.26,4.26,0,0,0,4.25-4.25V210.12a4.26,4.26,0,0,1,4.25-4.25h65.92a4.26,4.26,0,0,0,4.25-4.25v-15a4.26,4.26,0,0,0-4.25-4.25H124.14a4.26,4.26,0,0,1-4.25-4.25V167.7a4.26,4.26,0,0,1,4.25-4.25H190.4a4.26,4.26,0,0,0,4.25-4.25V143.34a4.26,4.26,0,0,0-4.25-4.25H93.06a4.26,4.26,0,0,0-4.25,4.25Z" fill="#004388"/>
            <path d="M324.76,141.94c1.74-1.57,1.24-2.85-1.1-2.85H289.88a12.32,12.32,0,0,0-7.33,2.93l-33,31.38a19.89,19.89,0,0,1-3.52,2.93c-.24,0-.44-1.91-.44-4.25V143.34a4.26,4.26,0,0,0-4.25-4.25H218.72a4.26,4.26,0,0,0-4.25,4.25V236.2a4.26,4.26,0,0,0,4.25,4.25H241.3a4.26,4.26,0,0,0,4.25-4.25V201.53l3.23,2.79,38.38,33.35a13.22,13.22,0,0,0,7.46,2.79H330.1c2.34,0,2.79-1.24,1-2.74L276.27,191.4a3.62,3.62,0,0,1-.09-5.59Z" fill="#004388"/>
            <path d="M454.57,139.09a7.86,7.86,0,0,0-6.27,3.74l-31.11,57.76c-1.11,2.06-2.92,2.06-4,0l-31.11-57.76a7.86,7.86,0,0,0-6.27-3.74H347.07a4.26,4.26,0,0,0-4.25,4.25V236.2a4.26,4.26,0,0,0,4.25,4.25h21.74a4.26,4.26,0,0,0,4.25-4.25V188.75c0-2.34.92-2.57,2-.52l26.42,48.49a7.91,7.91,0,0,0,6.29,3.73h14.74a7.91,7.91,0,0,0,6.29-3.73l26.42-48.49c1.12-2.05,2-1.82,2,.52V236.2a4.26,4.26,0,0,0,4.25,4.25h21.74a4.26,4.26,0,0,0,4.25-4.25V143.34a4.26,4.26,0,0,0-4.25-4.25Z" fill="#004388"/>
          </g>
          <path d="M632,209.56a3.39,3.39,0,0,0,5.39-.49L714.67,95.92c1.32-1.93,3.27-1.81,4.33.28l15.07,29.51a8.35,8.35,0,0,1-.32,7.39L640,283.33a2.74,2.74,0,0,1-4.82.22l-61.51-81.2a7.41,7.41,0,0,1-.62-7.17l13.28-25.85a2.91,2.91,0,0,1,4.94-.76Z" fill="#abcc59"/>
          <g>
            <path d="M47.18,413.67a6.43,6.43,0,0,1,2.17-4.2l38-31.93c1.19-1,.89-1.83-.67-1.83H51.36a2.52,2.52,0,1,1,0-5H96.5c1.56,0,2.83,1,2.83,2.19a6.28,6.28,0,0,1-2.16,4L59,409.21c-1.19,1-.89,1.83.67,1.83H97.39a2.52,2.52,0,1,1,0,5H50A2.65,2.65,0,0,1,47.18,413.67Z" fill="#004388"/>
            <path d="M121.42,373.54a2.84,2.84,0,0,1,2.83-2.83h39.83a2.52,2.52,0,1,1,0,5H130.52a2.84,2.84,0,0,0-2.83,2.83v8.8a2.84,2.84,0,0,0,2.83,2.83h32a2.52,2.52,0,1,1,0,5h-32a2.84,2.84,0,0,0-2.83,2.83v10.18a2.84,2.84,0,0,0,2.83,2.83h33.82a2.52,2.52,0,1,1,0,5H124.25a2.84,2.84,0,0,1-2.83-2.83Z" fill="#004388"/>
            <path d="M188.68,373.54a2.84,2.84,0,0,1,2.84-2.83H222.9a25,25,0,0,1,5.57.76s12.76,3.56,12.76,12.08v.86a15.58,15.58,0,0,1-1.18,5.41s-2.54,5.57-7.34,6h0a20.12,20.12,0,0,0,2.48,1.5s5.46,3,5.46,7.15v8.75a2.84,2.84,0,0,1-2.84,2.83h-.22a2.84,2.84,0,0,1-2.83-2.83v-4.29a16,16,0,0,0-1.15-5.43s-2.37-5.37-8.07-5.37H197.79A2.84,2.84,0,0,0,195,401v12.25a2.84,2.84,0,0,1-2.83,2.83h-.6a2.84,2.84,0,0,1-2.84-2.83ZM225,393.13c7,0,9.92-1.82,9.92-6.58v-1.3a20.94,20.94,0,0,0-.9-5.52s-1.34-4-10.56-4H197.79a2.84,2.84,0,0,0-2.84,2.83v11.75a2.84,2.84,0,0,0,2.84,2.84Z" fill="#004388"/>
            <path d="M283,378.55a2.84,2.84,0,0,0-2.83-2.83h-17.8a2.52,2.52,0,1,1,0-5h47.45a2.52,2.52,0,1,1,0,5H292.06a2.84,2.84,0,0,0-2.84,2.83v34.67a2.84,2.84,0,0,1-2.83,2.83h-.6a2.84,2.84,0,0,1-2.84-2.83Z" fill="#004388"/>
            <path d="M332.42,373.54a2.84,2.84,0,0,1,2.83-2.83h.6a2.84,2.84,0,0,1,2.83,2.83v39.68a2.84,2.84,0,0,1-2.83,2.83h-.6a2.84,2.84,0,0,1-2.83-2.83Z" fill="#004388"/>
            <path d="M363.53,373.54a2.84,2.84,0,0,1,2.83-2.83h38.49a2.52,2.52,0,1,1,0,5H372.63a2.84,2.84,0,0,0-2.83,2.83v8.8a2.84,2.84,0,0,0,2.83,2.83h30.74a2.52,2.52,0,1,1,0,5H372.63A2.84,2.84,0,0,0,369.8,398v15.19A2.84,2.84,0,0,1,367,416h-.6a2.84,2.84,0,0,1-2.83-2.83Z" fill="#004388"/>
            <path d="M429.77,373.54a2.84,2.84,0,0,1,2.83-2.83h.6a2.84,2.84,0,0,1,2.83,2.83v39.68A2.84,2.84,0,0,1,433.2,416h-.6a2.84,2.84,0,0,1-2.83-2.83Z" fill="#004388"/>
            <path d="M457.42,413.67a6.43,6.43,0,0,1,2.17-4.2l38-31.93c1.19-1,.89-1.83-.67-1.83H461.59a2.52,2.52,0,1,1,0-5h45.14c1.56,0,2.83,1,2.83,2.19a6.28,6.28,0,0,1-2.16,4l-38.16,32.29c-1.19,1-.89,1.83.67,1.83h37.72a2.52,2.52,0,1,1,0,5H460.25A2.65,2.65,0,0,1,457.42,413.67Z" fill="#004388"/>
            <path d="M531.85,373.54a2.84,2.84,0,0,1,2.83-2.83h.6a2.84,2.84,0,0,1,2.83,2.83v39.68a2.84,2.84,0,0,1-2.83,2.83h-.6a2.84,2.84,0,0,1-2.83-2.83Z" fill="#004388"/>
            <path d="M563,373.54a2.84,2.84,0,0,1,2.83-2.83h39.83a2.52,2.52,0,1,1,0,5h-33.6a2.84,2.84,0,0,0-2.83,2.83v8.8a2.84,2.84,0,0,0,2.83,2.83h32a2.52,2.52,0,1,1,0,5h-32a2.84,2.84,0,0,0-2.83,2.83v10.18a2.84,2.84,0,0,0,2.83,2.83h33.81a2.52,2.52,0,1,1,0,5H565.79a2.84,2.84,0,0,1-2.83-2.83Z" fill="#004388"/>
            <path d="M630.21,373.54A2.84,2.84,0,0,1,633,370.7h31.38a25,25,0,0,1,5.57.76s12.76,3.56,12.76,12.08v.86a15.58,15.58,0,0,1-1.18,5.41s-2.54,5.57-7.34,6h0a20.11,20.11,0,0,0,2.48,1.5s5.45,3,5.45,7.15v8.75a2.84,2.84,0,0,1-2.83,2.83h-.22a2.84,2.84,0,0,1-2.84-2.83v-4.29a16,16,0,0,0-1.15-5.43s-2.37-5.37-8.07-5.37H639.32a2.84,2.84,0,0,0-2.83,2.83V413.2a2.84,2.84,0,0,1-2.83,2.83H633a2.84,2.84,0,0,1-2.84-2.83Zm36.35,19.59c7,0,9.92-1.82,9.92-6.58v-1.3a20.94,20.94,0,0,0-.9-5.52s-1.34-4-10.56-4h-25.7a2.84,2.84,0,0,0-2.83,2.83v11.75a2.84,2.84,0,0,0,2.83,2.84Z" fill="#004388"/>
            <path d="M724.48,378.55a2.84,2.84,0,0,0-2.83-2.83H703.9a2.52,2.52,0,1,1,0-5h47.45a2.52,2.52,0,1,1,0,5H733.59a2.84,2.84,0,0,0-2.84,2.83v34.67a2.84,2.84,0,0,1-2.83,2.83h-.6a2.84,2.84,0,0,1-2.83-2.83Z" fill="#004388"/>
          </g>
        </g>
      </g>
    </g>
  </g>
</svg>
