<svg xmlns="http://www.w3.org/2000/svg" xmlns:xlink="http://www.w3.org/1999/xlink" viewBox="0 0 135 40">
  <defs>
    <linearGradient id="Unbenannter_Verlauf" data-name="Unbenannter Verlauf" x1="21.8" y1="-177.29" x2="5.02" y2="-160.51" gradientTransform="translate(0 186)" gradientUnits="userSpaceOnUse">
      <stop offset="0" stop-color="#00a0ff"/>
      <stop offset="0.01" stop-color="#00a1ff"/>
      <stop offset="0.26" stop-color="#00beff"/>
      <stop offset="0.51" stop-color="#00d2ff"/>
      <stop offset="0.76" stop-color="#00dfff"/>
      <stop offset="1" stop-color="#00e3ff"/>
    </linearGradient>
    <linearGradient id="Unbenannter_Verlauf_2" data-name="Unbenannter Verlauf 2" x1="33.83" y1="-166" x2="9.64" y2="-166" gradientTransform="translate(0 186)" gradientUnits="userSpaceOnUse">
      <stop offset="0" stop-color="#ffe000"/>
      <stop offset="0.41" stop-color="#ffbd00"/>
      <stop offset="0.78" stop-color="orange"/>
      <stop offset="1" stop-color="#ff9c00"/>
    </linearGradient>
    <linearGradient id="Unbenannter_Verlauf_3" data-name="Unbenannter Verlauf 3" x1="24.83" y1="-163.7" x2="2.07" y2="-140.95" gradientTransform="translate(0 186)" gradientUnits="userSpaceOnUse">
      <stop offset="0" stop-color="#ff3a44"/>
      <stop offset="1" stop-color="#c31162"/>
    </linearGradient>
    <linearGradient id="Unbenannter_Verlauf_4" data-name="Unbenannter Verlauf 4" x1="7.3" y1="-185.82" x2="17.46" y2="-175.66" gradientTransform="translate(0 186)" gradientUnits="userSpaceOnUse">
      <stop offset="0" stop-color="#32a071"/>
      <stop offset="0.07" stop-color="#2da771"/>
      <stop offset="0.48" stop-color="#15cf74"/>
      <stop offset="0.8" stop-color="#06e775"/>
      <stop offset="1" stop-color="#00f076"/>
    </linearGradient>
  </defs>
  <title>googleplay-de2</title>
  <g id="Ebene_2" data-name="Ebene 2">
    <g id="Ebene_1-2" data-name="Ebene 1">
      <g id="Ebene_2-2" data-name="Ebene 2">
        <g id="artwork">
          <g>
            <rect width="135" height="40" rx="5" ry="5"/>
            <path d="M130,.8A4.2,4.2,0,0,1,134.2,5V35a4.2,4.2,0,0,1-4.2,4.2H5A4.2,4.2,0,0,1,.8,35h0V5A4.2,4.2,0,0,1,5,.8H130m0-.8H5A5,5,0,0,0,0,5V35a5,5,0,0,0,5,5H130a5,5,0,0,0,5-5V5A5,5,0,0,0,130,0Z" fill="#a6a6a6"/>
            <path d="M68.14,21.75A4.25,4.25,0,1,0,72.41,26a4.19,4.19,0,0,0-4.13-4.25Zm0,6.83a2.58,2.58,0,1,1,2.39-2.75q0,.09,0,.17a2.46,2.46,0,0,1-2.34,2.58Zm-9.31-6.83A4.25,4.25,0,1,0,63.09,26,4.19,4.19,0,0,0,59,21.75h-.13Zm0,6.83a2.58,2.58,0,1,1,2.38-2.76q0,.09,0,.18a2.46,2.46,0,0,1-2.34,2.58h-.05ZM47.74,23.06v1.8h4.32a3.77,3.77,0,0,1-1,2.27,4.42,4.42,0,0,1-3.33,1.32,4.8,4.8,0,0,1,0-9.6A4.6,4.6,0,0,1,51,20.14l1.27-1.27A6.29,6.29,0,0,0,47.74,17a6.61,6.61,0,1,0-.51,13.21h.51a5.84,5.84,0,0,0,6.17-6.07,5.87,5.87,0,0,0-.1-1.13Zm45.31,1.4a3.92,3.92,0,0,0-7.65,1.28q0,.13,0,.26a4.16,4.16,0,0,0,4.07,4.25h.15a4.23,4.23,0,0,0,3.54-1.88l-1.45-1a2.43,2.43,0,0,1-2.09,1.18,2.16,2.16,0,0,1-2.06-1.29l5.69-2.35Zm-5.8,1.42a2.33,2.33,0,0,1,2.17-2.48h0a1.65,1.65,0,0,1,1.58.9ZM82.63,30H84.5V17.5H82.63Zm-3.06-7.3H79.5a3,3,0,0,0-2.24-1,4.26,4.26,0,0,0,0,8.51,2.9,2.9,0,0,0,2.24-1h.06v.61c0,1.63-.87,2.5-2.27,2.5a2.35,2.35,0,0,1-2.14-1.51l-1.63.68A4.05,4.05,0,0,0,77.29,34c2.19,0,4-1.29,4-4.43V22H79.57Zm-2.14,5.88a2.59,2.59,0,0,1,0-5.16,2.4,2.4,0,0,1,2.27,2.52V26a2.38,2.38,0,0,1-2.17,2.57h-.1ZM101.81,17.5H97.34V30h1.87V25.26h2.61a3.89,3.89,0,1,0,0-7.76Zm0,6H99.2V19.24h2.65a2.14,2.14,0,0,1,0,4.29Zm11.53-1.8A3.5,3.5,0,0,0,110,23.61l1.66.69a1.77,1.77,0,0,1,1.7-.92,1.8,1.8,0,0,1,2,1.58v.16a4.13,4.13,0,0,0-1.95-.48c-1.79,0-3.6,1-3.6,2.81a2.89,2.89,0,0,0,3,2.75h.08a2.63,2.63,0,0,0,2.4-1.2h.06v1h1.8V25.19c0-2.19-1.66-3.46-3.79-3.46Zm-.23,6.85c-.61,0-1.46-.31-1.46-1.06,0-1,1.06-1.33,2-1.33a3.32,3.32,0,0,1,1.7.42,2.26,2.26,0,0,1-2.19,2ZM123.74,22l-2.14,5.42h-.06L119.32,22h-2l3.33,7.58-1.9,4.21h1.95L125.82,22Zm-16.81,8h1.87V17.5h-1.87Z" fill="#fff"/>
            <g>
              <path d="M10.44,7.54A2,2,0,0,0,10,8.94V31.06a2,2,0,0,0,.46,1.4l.07.07L22.9,20.15v-.29L10.51,7.47Z" fill="url(#Unbenannter_Verlauf)"/>
              <path d="M27,24.28l-4.1-4.13v-.29L27,15.72l.09,0L32,18.56c1.4.79,1.4,2.09,0,2.89l-4.89,2.78Z" fill="url(#Unbenannter_Verlauf_2)"/>
              <path d="M27.12,24.22,22.9,20,10.44,32.46a1.63,1.63,0,0,0,2.08.06l14.61-8.3" fill="url(#Unbenannter_Verlauf_3)"/>
              <path d="M27.12,15.78,12.51,7.48a1.63,1.63,0,0,0-2.08.06L22.9,20Z" fill="url(#Unbenannter_Verlauf_4)"/>
              <g>
                <path d="M27,24.13,12.51,32.38a1.67,1.67,0,0,1-2,0h0l-.07.07h0l.07.07h0a1.66,1.66,0,0,0,2,0l14.61-8.3Z" opacity="0.2" style="isolation: isolate"/>
                <path d="M10.44,32.32a2,2,0,0,1-.46-1.4v.15a2,2,0,0,0,.46,1.4l.07-.07Z" opacity="0.12" style="isolation: isolate"/>
              </g>
              <path d="M32,21.3l-5,2.83.09.09L32,21.44A1.75,1.75,0,0,0,33,20h0A1.86,1.86,0,0,1,32,21.3Z" opacity="0.12" style="isolation: isolate"/>
              <path d="M12.51,7.62,32,18.7A1.86,1.86,0,0,1,33,20h0a1.75,1.75,0,0,0-1-1.44L12.51,7.48C11.11,6.69,10,7.35,10,8.95V9.1C10,7.49,11.12,6.83,12.51,7.62Z" fill="#fff" opacity="0.25" style="isolation: isolate"/>
            </g>
          </g>
          <g>
            <path d="M43,13.13a1.74,1.74,0,0,1-1.12-.36,2,2,0,0,1-.65-1l.7-.29a1.1,1.1,0,0,0,1.1,1,1,1,0,0,0,.83-.35,1.43,1.43,0,0,0,.29-.94V7h.77v4.09a2,2,0,0,1-.54,1.51A1.88,1.88,0,0,1,43,13.13Z" fill="#fff" stroke="#fff" stroke-miterlimit="10" stroke-width="0.2"/>
            <path d="M49.71,7.74H47v1.9h2.46v.72H47v1.9h2.73V13H46.2V7h3.5Z" fill="#fff" stroke="#fff" stroke-miterlimit="10" stroke-width="0.2"/>
            <path d="M53,13h-.77V7.74H50.51V7h4.12v.74H53Z" fill="#fff" stroke="#fff" stroke-miterlimit="10" stroke-width="0.2"/>
            <path d="M55.27,13v-.8l3.19-4.46H55.4V7h4v.8l-3.19,4.46h3.23V13Z" fill="#fff" stroke="#fff" stroke-miterlimit="10" stroke-width="0.2"/>
            <path d="M62.54,13h-.77V7.74H60.1V7h4.12v.74H62.54Z" fill="#fff" stroke="#fff" stroke-miterlimit="10" stroke-width="0.2"/>
            <path d="M67.2,13V7h2.17a1.76,1.76,0,0,1,1.22.46,1.51,1.51,0,0,1,.52,1.17,1.31,1.31,0,0,1-.22.75,1.39,1.39,0,0,1-.59.49h0a1.52,1.52,0,0,1,.73.52,1.36,1.36,0,0,1,.29.86,1.57,1.57,0,0,1-.54,1.22A1.85,1.85,0,0,1,69.5,13ZM68,9.57h1.4a.9.9,0,0,0,.7-.29A.89.89,0,0,0,70.1,8h0a.86.86,0,0,0-.67-.29H68Zm0,2.69h1.55a.92.92,0,0,0,.72-.31,1,1,0,0,0-.72-1.68H68Z" fill="#fff" stroke="#fff" stroke-miterlimit="10" stroke-width="0.2"/>
            <path d="M75.85,7.74H73.12v1.9h2.46v.72H73.12v1.9h2.73V13h-3.5V7h3.5Z" fill="#fff" stroke="#fff" stroke-miterlimit="10" stroke-width="0.2"/>
            <path d="M77.06,13V7h.77v6Z" fill="#fff" stroke="#fff" stroke-miterlimit="10" stroke-width="0.2"/>
          </g>
        </g>
      </g>
    </g>
  </g>
</svg>
