<svg xmlns="http://www.w3.org/2000/svg" viewBox="0 0 59 88"><defs><style>.cls-1{fill:none;stroke:#333;stroke-miterlimit:10;}</style></defs><title>icon-rahmenprogramm</title><g id="Ebene_2" data-name="Ebene 2"><g id="Rahmenprogramm"><line class="cls-1" x1="12" y1="36" x2="18" y2="36"/><line class="cls-1" x1="20.5" y1="36" x2="47.5" y2="36"/><line class="cls-1" x1="12" y1="47" x2="18" y2="47"/><line class="cls-1" x1="20.5" y1="47" x2="47.5" y2="47"/><line class="cls-1" x1="12" y1="58" x2="18" y2="58"/><line class="cls-1" x1="20.5" y1="58" x2="47.5" y2="58"/><line class="cls-1" x1="12" y1="69" x2="18" y2="69"/><line class="cls-1" x1="20.5" y1="69" x2="47.5" y2="69"/><path class="cls-1" d="M51.5,12.5h-5v-1a3,3,0,0,0-3-3H38.44a9,9,0,0,0-17.88,0H15.5a3,3,0,0,0-3,3v1h-5a7,7,0,0,0-7,7v61a7,7,0,0,0,7,7h44a7,7,0,0,0,7-7v-61A7,7,0,0,0,51.5,12.5Z"/><path class="cls-1" d="M43.5,8.5H38.44a9,9,0,0,0-17.88,0H15.5a3,3,0,0,0-3,3v7a3,3,0,0,0,3,3h28a3,3,0,0,0,3-3v-7A3,3,0,0,0,43.5,8.5Z"/></g></g></svg>