<svg xmlns="http://www.w3.org/2000/svg" viewBox="0 0 88.38 63.76"><defs><style>.cls-1,.cls-3{fill:none;stroke:#333;stroke-miterlimit:10;}.cls-2{fill:#333;}.cls-3{stroke-dasharray:3 2;}</style></defs><title>icon-ticketshop</title><g id="Ebene_2" data-name="Ebene 2"><g id="Ticketshop"><path class="cls-1" d="M62.18,16.09,35.63,27.43a1,1,0,0,1-1.31-.53l-1.56-3.68a1,1,0,0,1,.53-1.31L59.83,10.57a1,1,0,0,1,1.31.53l1.56,3.68A1,1,0,0,1,62.18,16.09Z"/><path class="cls-2" d="M73.9,29.59l-.79-1.85.92-.39.79,1.85ZM72.32,25.9l-1.17-2.76.92-.39,1.17,2.76Zm-2-4.6L69.2,18.54l.92-.39,1.17,2.76Zm-2-4.6-1.17-2.76.92-.39,1.17,2.76Zm-2-4.6L65.29,9.34l.92-.39,1.17,2.76Zm-2-4.6L63.33,4.74l.92-.39,1.17,2.76Z"/><path class="cls-1" d="M5.5,29.26"/><path class="cls-1" d="M82.5,33.26l1.67-1a6.09,6.09,0,0,0,3.22-8L78.86,4.21a6.09,6.09,0,0,0-8-3.22L4.44,29.21s-1,.12-2.45,2.08"/><path class="cls-1" d="M53.84,29.26l5.41-2.17a1,1,0,0,0,.53-1.31L58.22,22.1a1,1,0,0,0-1.31-.53L38.5,29.26Z"/><rect class="cls-1" x="29.5" y="33.76" width="34" height="6" rx="1" ry="1"/><rect class="cls-1" x="29.5" y="42.76" width="23" height="6" rx="1" ry="1"/><circle class="cls-1" cx="17" cy="51.26" r="8"/><rect class="cls-1" x="0.5" y="29.26" width="82" height="34" rx="6" ry="6"/><line class="cls-3" x1="68.5" y1="29.76" x2="68.5" y2="63.76"/></g></g></svg>