<svg xmlns="http://www.w3.org/2000/svg" viewBox="0 0 71.19 78.49"><defs><style>.cls-1,.cls-2{fill:none;stroke:#333;}.cls-1{stroke-miterlimit:10;}.cls-2{stroke-linecap:round;stroke-linejoin:round;}</style></defs><title>icon-anmeldung</title><g id="Ebene_2" data-name="Ebene 2"><g id="Anmeldung"><path class="cls-1" d="M38.8,7.63H34.29a8,8,0,0,0-15.93,0H13.86a2.67,2.67,0,0,0-2.67,2.67v6.24a2.67,2.67,0,0,0,2.67,2.67H38.8a2.67,2.67,0,0,0,2.67-2.67V10.29A2.67,2.67,0,0,0,38.8,7.63Z"/><path class="cls-1" d="M42.78,60.29,29.17,64.46l4.17-13.61L52.16,32V17.42a6.23,6.23,0,0,0-6.23-6.23H41.47v-.89A2.67,2.67,0,0,0,38.8,7.63H34.29a8,8,0,0,0-15.93,0H13.86a2.67,2.67,0,0,0-2.67,2.67v.89H6.73A6.23,6.23,0,0,0,.5,17.42V71.75A6.23,6.23,0,0,0,6.73,78H45.92a6.23,6.23,0,0,0,6.23-6.23V50.92Z"/><polygon class="cls-2" points="56.25 27.93 65.7 37.38 42.78 60.29 29.17 64.46 33.34 50.84 56.25 27.93"/><polyline class="cls-2" points="33.34 50.84 39.53 54.1 42.78 60.29"/><path class="cls-2" d="M57.76,24.29H71.12a0,0,0,0,1,0,0v5.13a4.67,4.67,0,0,1-4.67,4.67h-4a4.67,4.67,0,0,1-4.67-4.67V24.29a0,0,0,0,1,0,0Z" transform="translate(89.36 95.39) rotate(-135)"/><line class="cls-2" x1="27.22" y1="64.63" x2="11.19" y2="64.63"/></g></g></svg>