<svg xmlns="http://www.w3.org/2000/svg" viewBox="0 0 590.7 184.97"><defs><style>.cls-1,.cls-2{fill:#7c7c7b;}.cls-2{fill-rule:evenodd;}</style></defs><title>2meS_logo_claim_65k_de</title><g id="Ebene_2" data-name="Ebene 2"><g id="Ebene_1-2" data-name="Ebene 1"><polygon class="cls-1" points="0 47.45 5.99 47.45 5.99 18.09 6.09 18.09 16.83 47.45 21.22 47.45 31.96 18.09 32.06 18.09 32.06 47.45 38.05 47.45 38.05 12.1 28.56 12.1 19.02 36.86 9.59 12.1 0 12.1 0 47.45 0 47.45"/><path class="cls-2" d="M66.68,37.56V35.91c0-8.34-4.55-13-11.24-13-7.24,0-13,5-13,12.58S48.2,48,55.44,48a12.48,12.48,0,0,0,10.14-4.79L61.29,40a7.88,7.88,0,0,1-6.44,3.25,6.21,6.21,0,0,1-6.44-5.69ZM48.4,33.07c.45-3.45,2.65-5.69,6.19-5.69,3.75,0,6,2.2,6.09,5.69Z"/><path class="cls-1" d="M88.49,26.53c-1.95-2.65-5.34-3.65-8.54-3.65-4.84,0-9.64,2.4-9.64,7.73,0,9.15,12.93,5.25,12.93,10.2,0,1.9-2.25,2.75-4,2.75-2.55,0-4.14-1.25-5.69-2.94l-4,3.74C72,47.1,75.2,48,78.9,48c4.89,0,10.34-2,10.34-7.69C89.23,31,76.3,34.5,76.3,30.21c0-1.79,1.9-2.53,3.49-2.53a5.45,5.45,0,0,1,4.69,2.44l4-3.58Z"/><path class="cls-1" d="M110.66,26.53c-1.95-2.65-5.34-3.65-8.54-3.65-4.84,0-9.64,2.4-9.64,7.73,0,9.15,12.93,5.25,12.93,10.2,0,1.9-2.25,2.75-4,2.75-2.55,0-4.14-1.25-5.69-2.94l-4,3.74C94.18,47.1,97.37,48,101.07,48c4.89,0,10.34-2,10.34-7.69,0-9.36-12.93-5.86-12.93-10.15,0-1.79,1.9-2.53,3.49-2.53a5.45,5.45,0,0,1,4.7,2.44l4-3.58Z"/><path class="cls-2" d="M138.62,37.56V35.91c0-8.34-4.54-13-11.24-13-7.24,0-13,5-13,12.58S120.14,48,127.38,48a12.48,12.48,0,0,0,10.14-4.79L133.23,40a7.88,7.88,0,0,1-6.44,3.25,6.21,6.21,0,0,1-6.44-5.69Zm-18.28-4.49c.45-3.45,2.65-5.69,6.19-5.69,3.75,0,6,2.2,6.09,5.69Z"/><path class="cls-1" d="M180.53,14.84A14.51,14.51,0,0,0,170.4,11.2c-6.54,0-13,3.39-13,10.69,0,12.63,16.78,8.19,16.78,15.93,0,3.25-3.3,4.84-6.19,4.84a8.34,8.34,0,0,1-7-3.7l-4.74,4.59c2.9,3.45,7.19,4.79,11.59,4.79,6.94,0,12.93-3.7,12.93-11.29,0-12.58-16.78-8.54-16.78-15.63,0-3.25,2.9-4.54,5.79-4.54a7.46,7.46,0,0,1,6.19,2.8l4.59-4.84Z"/><path class="cls-1" d="M186.88,28.57v11c0,5.64,1.5,8.49,7.84,8.49a12.66,12.66,0,0,0,4.74-.8v-5a6.24,6.24,0,0,1-3.25.75c-2.65,0-3.35-1.5-3.35-3.9V28.57h6.59V23.48h-6.59V16.54h-6v6.94H182.5v5.09Z"/><path class="cls-1" d="M225.46,23.48h-6V36.56c0,3.19-1.55,6.09-5.49,6.09-4.19,0-4.39-4.39-4.39-7V23.48h-6V38.61c0,4.89,2.3,9.44,8.74,9.44a7.51,7.51,0,0,0,7.34-4.44h.1v3.84h5.69v-24Z"/><path class="cls-1" d="M233.83,28.57v11c0,5.64,1.5,8.49,7.84,8.49a12.67,12.67,0,0,0,4.74-.8v-5a6.24,6.24,0,0,1-3.25.75c-2.65,0-3.35-1.5-3.35-3.9V28.57h6.59V23.48h-6.59V16.54h-6v6.94h-4.38v5.09Z"/><path class="cls-1" d="M253.26,28.57v11c0,5.64,1.5,8.49,7.84,8.49a12.67,12.67,0,0,0,4.74-.8v-5a6.24,6.24,0,0,1-3.25.75c-2.65,0-3.35-1.5-3.35-3.9V28.57h6.59V23.48h-6.59V16.54h-6v6.94h-4.38v5.09Z"/><path class="cls-2" d="M288.38,23.48v3.6h-.1c-1.75-2.9-4.89-4.2-8.24-4.2-7.39,0-11.83,5.49-11.83,12.58,0,6.79,4.74,12.29,11.94,12.29a9.76,9.76,0,0,0,7.84-3.5h.1V46c0,4.74-1.8,8-7.59,8a11.57,11.57,0,0,1-8.24-3.45l-3.6,4.89c3.4,3,7.44,3.95,11.88,3.95,9.34,0,13.53-5.49,13.53-14.13V23.48Zm-7.09,4.79a6.67,6.67,0,0,1,7.09,7,6.74,6.74,0,0,1-7.14,7,6.92,6.92,0,0,1-7-6.94,6.78,6.78,0,0,1,7.09-7.14Z"/><path class="cls-2" d="M314.84,47.45h5.39V33.67c0-3.4,0-10.79-10.24-10.79a14,14,0,0,0-10.19,3.85L303,29.87a9.42,9.42,0,0,1,6.39-2.5c3.2,0,5.49,1.55,5.49,4.49v.65h-1.5c-6,0-15.08.55-15.08,8.34,0,4.74,4.29,7.19,8.74,7.19a8.61,8.61,0,0,0,7.69-3.89h.15v3.3Zm-.35-9.39c0,3.35-1.95,5.49-6,5.49-1.95,0-4.19-.95-4.19-3.15,0-3.45,5.69-3.7,9-3.7h1.25v1.35Z"/><path class="cls-1" d="M326,47.45h6V34.62a6,6,0,0,1,6.44-6,12.06,12.06,0,0,1,2.9.45V23.23a7.68,7.68,0,0,0-9.24,4H332V23.48h-6v24Z"/><path class="cls-1" d="M348.6,28.57v11c0,5.64,1.5,8.49,7.84,8.49a12.66,12.66,0,0,0,4.74-.8v-5a6.24,6.24,0,0,1-3.25.75c-2.65,0-3.35-1.5-3.35-3.9V28.57h6.59V23.48h-6.59V16.54h-6v6.94h-4.38v5.09Z"/><path class="cls-1" d="M589.82,142.7c7.46-51.17-33.14-100.63-88.73-106-25.95-2.5-42.86,7-48.15,23.92-3.4,10.94-1.37,23.63,5,33.63a35.62,35.62,0,0,0,29.54,17.08c10,.3,18.78,5.1,23.5,13,4.26,7.13,4.22,15,.13,20.33-5.93,7.72-18.63,8.42-34.27,2.75C448.5,137.11,428.57,110,420.37,84.18L414.14,82c8.91,29,31.17,59.85,62.79,71.78,18.19,6.87,33.52,6.08,41.4-3.41,6.21-7.46,6.53-18.88.27-29.52a37.94,37.94,0,0,0-32.85-18.59c-9.59,0-17.56-4.41-22.36-12.11a28.38,28.38,0,0,1-3-23.91C464.82,53.34,479,46.76,500.5,49.43c46.14,5.76,80.5,46.12,77.24,89.1l12.08,4.17Z"/><path class="cls-1" d="M517.22,185c33.23-1.62,56.77-28.44,45.84-66.82-14.41-50.74-63.75-63.46-86.56-55.83-8.39,2.82-10.56,11.55-8.61,18.24,1.69,5.81,7.07,12.25,17.2,11.73,26.31-1.36,43.71,18,47.55,36.37,3.89,18.53-5.32,36-30.62,36.35-15.89.21-32.21-5.95-47.31-17.1l-2.92,3.69c16.68,12.8,34.93,20.1,52.93,20.3,30.23.33,42.12-21.29,37.91-43.59-4.46-23.64-26.54-48.6-59.56-45.87-3.95.33-6.84-1-7.49-3.28-.55-2,.39-5.28,4.26-6.41,14.69-4.3,58.19,1.51,72.14,47.37,9.75,32.1-9.08,55.66-37.39,58.09l2.63,6.77Z"/><path class="cls-1" d="M450,12.13c-23.05,21.5-26.2,56-12.65,84.38,15.19,31.76,43.26,40.31,55.35,39.56,3.63-.23,4.68-2.57,4.27-4.19-.5-1.92-3.25-3.31-6.94-3.53-25.3-1.5-42.09-20.17-49.25-39.48-8-21.68-6.7-53.77,21.44-71.17,23.49-14.52,58.35-14,91.93,4.68l-9.81,12.36c-28.09-15.08-57.94-16.31-77.82-5.16-24.24,13.59-26.34,39.22-19.61,58,5.77,16.15,20,31.74,41.36,32.47,10.14.35,15.41,6.65,16.67,11.81,1.38,5.66-1.67,11.68-9.62,11.95-17.72.61-47.18-12.68-63.13-45.37C416.76,66.73,419.48,25.54,445.3,0L450,12.13Z"/><path class="cls-2" d="M164,109.22h3.9V85.82H164v23.4Zm-.9-32.55a2.85,2.85,0,1,0,5.7,0,2.85,2.85,0,1,0-5.7,0Z"/><path class="cls-1" d="M175.93,109.22h3.9V97.82c0-5.35,2.2-9,7.25-9,3.2,0,4.5,2,4.5,7.15v13.25h3.9V95.72c0-4.2,2.75-6.9,6.05-6.9,4.55,0,5.7,3.15,5.7,6.4v14h3.9V95c0-6.05-2.2-9.8-8.9-9.8-3.55,0-5.7,1.7-7.4,4.45-.75-1.6-2.35-4.45-7.4-4.45a8.5,8.5,0,0,0-7.8,4.45h-.1c0-1.3-.1-2.6-.1-3.85h-3.7c0,1.55.2,3.4.2,5.55v17.85Z"/><polygon class="cls-1" points="233.89 109.22 238.09 109.22 238.09 79.52 238.19 79.52 250.89 109.22 253.44 109.22 266.14 79.52 266.24 79.52 266.24 109.22 270.44 109.22 270.44 73.82 264.34 73.82 252.24 101.57 252.14 101.57 240.14 73.82 233.89 73.82 233.89 109.22 233.89 109.22"/><path class="cls-2" d="M281,91.37A10.38,10.38,0,0,1,288,88.81c3.65,0,5.8,1.75,5.8,5.15v.7h-1.5c-5.75,0-14.75.45-14.75,8.2,0,4.55,4,6.95,8.7,6.95a8.84,8.84,0,0,0,7.7-4.1h.1a16.73,16.73,0,0,0,.25,3.5H298a26.09,26.09,0,0,1-.35-4.05V95.12c0-6.6-2.9-9.9-9.8-9.9a13,13,0,0,0-9.3,3.6L281,91.37ZM293.77,98v1.5c-.1,3.8-2.4,7.05-6.9,7.05-2.95,0-5.15-1.1-5.15-4.05,0-3.15,3.2-4.5,8.15-4.5Z"/><path class="cls-1" d="M305.14,109.22H309V97.82c0-5.35,2.1-8.7,6.85-8.7a7.37,7.37,0,0,1,2.1.3l.25-4a4.63,4.63,0,0,0-1.6-.25,8.5,8.5,0,0,0-7.8,4.45h-.1c0-1.3-.1-2.6-.1-3.85h-3.7c0,1.55.2,3.4.2,5.55v17.85Z"/><polygon class="cls-1" points="323.07 109.22 326.96 109.22 326.96 96.92 338.56 109.22 344.31 109.22 331.87 96.47 343.17 85.82 337.62 85.82 326.96 96.12 326.96 71.42 323.07 71.42 323.07 109.22 323.07 109.22"/><path class="cls-1" d="M361.19,85.82h-6.9V79.17h-3.9v6.65h-5.1v3.3h5.1V102c0,4.85.9,7.85,6.45,7.85a11.83,11.83,0,0,0,4.55-.85l-.15-3.55a7.61,7.61,0,0,1-3.45.8c-3.45,0-3.5-2.4-3.5-5.4V89.12h6.9v-3.3Z"/><polygon class="cls-1" points="0.01 109.22 4.21 109.22 4.21 79.52 4.31 79.52 17.01 109.22 19.56 109.22 32.26 79.52 32.36 79.52 32.36 109.22 36.56 109.22 36.56 73.82 30.46 73.82 18.36 101.57 18.26 101.57 6.26 73.82 0.01 73.82 0.01 109.22 0.01 109.22"/><path class="cls-2" d="M45.33,109.22h3.9V85.82h-3.9v23.4Zm-.9-32.55a2.85,2.85,0,1,0,5.7,0,2.85,2.85,0,1,0-5.7,0Z"/><path class="cls-1" d="M70.11,85.82h-6.9V79.17h-3.9v6.65h-5.1v3.3h5.1V102c0,4.85.9,7.85,6.45,7.85a11.83,11.83,0,0,0,4.55-.85l-.15-3.55a7.61,7.61,0,0,1-3.45.8c-3.45,0-3.5-2.4-3.5-5.4V89.12h6.9v-3.3Z"/><path class="cls-1" d="M88,85.82h-6.9V79.17h-3.9v6.65h-5.1v3.3h5.1V102c0,4.85.9,7.85,6.45,7.85a11.82,11.82,0,0,0,4.55-.85l-.15-3.55a7.6,7.6,0,0,1-3.45.8c-3.45,0-3.5-2.4-3.5-5.4V89.12H88v-3.3Z"/><path class="cls-2" d="M111.11,102.67a8.71,8.71,0,0,1-7.45,3.55A7.82,7.82,0,0,1,96,98.72h18.9V97.46c0-7.75-4.5-12.25-11.1-12.25-6.9,0-12,5-12,12.3,0,6.8,4.5,12.3,11.85,12.3,4.35,0,7.65-1.3,10.4-4.85l-3-2.3ZM96,95.42a7.24,7.24,0,0,1,7.65-6.6c4.3,0,6.9,2.65,7.05,6.6Z"/><path class="cls-1" d="M121.28,109.22h3.9V97.82c0-5.35,2.2-9,7.25-9,3.65,0,5.35,2.45,5.35,6.35v14.05h3.9V94.77c0-5.65-2.75-9.55-8.9-9.55a8.5,8.5,0,0,0-7.8,4.45h-.1c0-1.3-.1-2.6-.1-3.85h-3.7c0,1.55.2,3.4.2,5.55v17.85Z"/></g></g></svg>